<?xml version="1.0" encoding="UTF-8"?>
<svg xmlns="http://www.w3.org/2000/svg" xmlns:xlink="http://www.w3.org/1999/xlink" width="27px" height="20px" viewBox="0 0 27 20" version="1.1">
<g id="surface1">
<path style=" stroke:none;fill-rule:nonzero;fill:rgb(0%,0%,0%);fill-opacity:1;" d="M 21.679688 0.449219 C 22.304688 0.359375 23.027344 0.578125 23.082031 0.589844 C 23.265625 0.652344 24.046875 0.988281 24.121094 1.042969 C 24.144531 1.058594 24.164062 1.074219 24.191406 1.085938 C 24.230469 1.09375 24.265625 1.085938 24.304688 1.085938 C 24.273438 1.089844 24.246094 1.089844 24.214844 1.09375 C 24.980469 1.164062 24.558594 1.113281 24.953125 1.121094 C 25.3125 1.085938 26.378906 1.128906 26.414062 1.421875 C 26.289062 1.453125 26.167969 1.503906 26.046875 1.542969 C 25.363281 1.714844 24.597656 1.835938 24.257812 2.007812 C 24.066406 2.097656 24.058594 2.097656 24.039062 2.121094 C 24.03125 2.160156 24.03125 2.199219 24.023438 2.238281 C 24.003906 2.226562 23.988281 2.214844 23.96875 2.203125 C 23.957031 2.203125 23.949219 2.203125 23.9375 2.203125 C 23.902344 2.234375 23.882812 2.277344 23.882812 2.328125 C 23.804688 2.328125 23.738281 2.375 23.679688 2.421875 C 23.675781 2.511719 23.640625 2.476562 23.59375 2.675781 C 23.574219 2.667969 23.558594 2.65625 23.542969 2.644531 C 23.535156 2.644531 23.527344 2.644531 23.519531 2.644531 C 23.472656 2.683594 23.429688 2.71875 23.386719 2.753906 C 23.375 2.753906 23.359375 2.757812 23.351562 2.757812 C 23.320312 2.804688 23.304688 2.851562 23.277344 2.898438 C 23.269531 2.886719 23.261719 2.875 23.253906 2.863281 C 23.1875 2.933594 23.1875 2.914062 23.171875 3.011719 C 23.164062 2.996094 23.152344 2.976562 23.128906 2.976562 C 23.085938 3.023438 23.0625 3.082031 23.019531 3.128906 C 22.960938 3.191406 22.855469 3.226562 22.761719 3.472656 C 22.734375 3.480469 22.707031 3.484375 22.679688 3.488281 C 22.667969 3.542969 22.664062 3.601562 22.664062 3.660156 C 22.644531 3.644531 22.625 3.632812 22.601562 3.617188 C 22.5625 3.828125 22.523438 3.757812 22.542969 3.96875 C 22.546875 3.996094 22.625 4.871094 22.625 4.871094 C 22.648438 4.996094 22.636719 5.125 22.628906 5.25 C 22.632812 5.328125 22.644531 5.40625 22.640625 5.484375 C 22.625 5.429688 22.648438 5.359375 22.628906 5.300781 C 22.613281 5.445312 22.667969 6 22.230469 8.058594 C 22.238281 8.078125 22.25 8.09375 22.257812 8.113281 C 22.261719 8.125 22.261719 8.132812 22.265625 8.144531 C 22.246094 8.144531 22.230469 8.140625 22.214844 8.140625 C 21.980469 8.808594 21.792969 9.628906 20.699219 10.90625 C 20.667969 10.941406 19.976562 11.695312 19.933594 11.738281 C 17.511719 13.550781 17.585938 12.964844 16.984375 13.644531 C 16.707031 14.03125 16.804688 13.847656 16.617188 14.453125 C 16.53125 14.660156 16.5625 14.546875 16.523438 14.804688 C 16.519531 14.820312 16.476562 15.070312 16.503906 15.179688 C 16.660156 15.738281 17.351562 18.148438 17.699219 18.617188 C 17.742188 18.605469 17.777344 18.574219 17.8125 18.546875 C 17.820312 18.546875 17.835938 18.542969 17.84375 18.542969 C 17.960938 18.417969 17.929688 18.496094 18.035156 18.433594 C 18.0625 18.441406 18.085938 18.453125 18.113281 18.457031 C 18.140625 18.453125 18.164062 18.433594 18.1875 18.417969 C 18.222656 18.417969 18.261719 18.410156 18.300781 18.421875 C 18.308594 18.433594 18.316406 18.449219 18.324219 18.460938 C 18.316406 18.464844 18.296875 18.472656 18.289062 18.480469 C 18.273438 18.480469 18.257812 18.480469 18.242188 18.484375 C 18.160156 18.554688 18.101562 18.648438 18.011719 18.714844 C 17.757812 18.820312 17.832031 18.835938 17.820312 18.953125 C 17.894531 19.015625 17.980469 19.0625 18.042969 19.132812 C 18.046875 19.171875 18.03125 19.230469 18.074219 19.25 C 18.113281 19.261719 18.148438 19.28125 18.171875 19.3125 C 18.230469 19.308594 18.289062 19.316406 18.351562 19.324219 C 18.386719 19.316406 18.632812 19.265625 18.726562 19.257812 C 18.800781 19.214844 18.878906 19.179688 18.949219 19.132812 C 19.007812 19.128906 19.066406 19.136719 19.125 19.132812 C 19.070312 19.128906 19.015625 19.128906 18.957031 19.125 C 19.246094 19.109375 19.003906 19.15625 19.320312 19.03125 C 19.425781 19.070312 19.457031 19.179688 19.46875 19.214844 C 19.429688 19.199219 19.394531 19.183594 19.359375 19.15625 C 19.320312 19.160156 19.28125 19.164062 19.246094 19.171875 C 19.210938 19.207031 19.179688 19.253906 19.125 19.25 C 19.128906 19.261719 19.140625 19.28125 19.144531 19.292969 C 19.128906 19.351562 19.140625 19.425781 19.089844 19.46875 C 19.023438 19.488281 18.953125 19.488281 18.886719 19.484375 C 18.847656 19.429688 18.804688 19.488281 18.613281 19.53125 C 18.347656 19.566406 18.640625 19.566406 18.152344 19.558594 C 18.113281 19.546875 18.070312 19.550781 18.035156 19.542969 C 17.988281 19.523438 17.945312 19.496094 17.902344 19.472656 C 17.871094 19.476562 17.84375 19.480469 17.8125 19.484375 C 17.796875 19.480469 17.78125 19.472656 17.765625 19.46875 C 17.710938 19.429688 17.695312 19.363281 17.660156 19.304688 C 17.605469 19.210938 17.628906 19.191406 17.429688 19.085938 C 17.339844 19.042969 17.238281 19.015625 17.148438 18.96875 C 17.089844 18.980469 16.589844 19.136719 16.578125 19.140625 C 16.511719 19.164062 16.082031 19.195312 15.984375 19.222656 C 15.980469 19.261719 15.96875 19.269531 15.957031 19.308594 C 15.890625 19.378906 15.855469 19.378906 15.8125 19.394531 C 15.703125 19.398438 15.542969 19.375 15.480469 19.28125 C 15.449219 19.242188 15.441406 19.195312 15.433594 19.148438 C 15.382812 19.136719 15.332031 19.121094 15.277344 19.117188 C 15.246094 19.136719 15.199219 19.140625 15.179688 19.175781 C 15.171875 19.171875 15.160156 19.164062 15.152344 19.15625 C 15.148438 19.171875 15.148438 19.1875 15.148438 19.203125 C 15.136719 19.210938 15.125 19.222656 15.113281 19.234375 C 15.113281 19.273438 15.097656 19.308594 15.066406 19.332031 C 15.039062 19.335938 15.011719 19.335938 14.984375 19.335938 C 14.980469 19.25 14.980469 19.152344 15.03125 19.078125 C 15.101562 19.035156 15.175781 18.992188 15.257812 18.960938 C 15.363281 18.957031 15.46875 18.976562 15.574219 18.972656 C 15.585938 18.953125 15.597656 18.9375 15.613281 18.921875 C 15.617188 18.921875 15.632812 18.917969 15.640625 18.917969 C 15.644531 18.914062 15.652344 18.902344 15.65625 18.898438 C 15.671875 18.898438 15.6875 18.898438 15.703125 18.898438 C 15.707031 18.902344 15.714844 18.914062 15.71875 18.917969 C 15.726562 18.917969 15.742188 18.921875 15.75 18.921875 C 15.761719 18.933594 15.773438 18.949219 15.785156 18.960938 C 15.851562 18.964844 15.917969 18.949219 15.980469 18.925781 C 16.074219 18.925781 16.160156 18.894531 16.253906 18.882812 C 16.394531 18.863281 16.519531 18.800781 16.652344 18.75 C 17.066406 18.582031 16.878906 18.679688 17.070312 18.539062 C 17.105469 18.402344 17.121094 18.496094 16.65625 16.996094 C 16.527344 16.609375 15.992188 15.355469 15.890625 15.148438 C 15.851562 15.070312 15.777344 14.667969 15.789062 14.390625 C 15.796875 14.332031 15.8125 14.273438 15.8125 14.214844 C 15.898438 14.035156 16.003906 13.867188 16.066406 13.675781 C 16.070312 13.671875 16.074219 13.667969 16.078125 13.664062 C 16.113281 13.558594 16.167969 13.460938 16.203125 13.359375 C 15.496094 13.339844 15.761719 13.359375 15.375 13.304688 C 15.363281 13.300781 14.804688 13.226562 14.769531 13.207031 C 14.355469 12.992188 14.640625 13.101562 14.195312 13.132812 C 14.078125 13.113281 13.914062 13.019531 13.695312 13.015625 C 13.609375 13.015625 13.527344 13.023438 13.445312 13.019531 C 13.417969 12.96875 13.402344 12.910156 13.347656 12.882812 C 13.296875 12.855469 13.1875 12.757812 12.851562 12.6875 C 12.757812 12.875 12.648438 13.054688 12.554688 13.242188 C 11.957031 16.480469 12.199219 17.007812 12.171875 17.195312 C 12.164062 17.257812 12.144531 17.324219 12.152344 17.386719 C 12.183594 17.429688 12.226562 17.457031 12.257812 17.496094 C 12.285156 17.53125 12.3125 17.566406 12.34375 17.597656 C 12.441406 17.691406 12.5625 17.90625 12.601562 17.949219 C 12.710938 18.054688 12.835938 18.132812 12.953125 18.226562 C 13.019531 18.289062 13.117188 18.296875 13.195312 18.335938 C 13.246094 18.390625 13.292969 18.453125 13.304688 18.527344 C 13.285156 18.53125 13.269531 18.53125 13.253906 18.535156 C 13.253906 18.542969 13.25 18.550781 13.25 18.5625 C 13.285156 18.59375 13.324219 18.621094 13.347656 18.660156 C 13.351562 18.695312 13.351562 18.730469 13.351562 18.765625 C 13.355469 18.75 13.359375 18.734375 13.363281 18.722656 C 13.363281 18.753906 13.363281 18.789062 13.363281 18.820312 C 13.347656 18.820312 13.328125 18.820312 13.3125 18.816406 C 13.273438 18.773438 13.253906 18.683594 12.957031 18.621094 C 12.925781 18.707031 12.886719 18.792969 12.808594 18.847656 C 12.75 18.847656 12.601562 18.824219 12.558594 18.773438 C 12.496094 18.699219 12.402344 18.65625 12.347656 18.574219 C 12.292969 18.492188 12.210938 18.445312 12.144531 18.375 C 12.074219 18.261719 12.011719 18.140625 11.941406 18.027344 C 11.867188 18.046875 11.808594 17.984375 11.777344 17.925781 C 11.777344 17.878906 11.765625 17.832031 11.765625 17.785156 C 11.777344 17.757812 11.777344 17.734375 11.777344 17.707031 C 11.746094 17.652344 11.628906 17.453125 11.601562 17.410156 C 11.355469 17.550781 11.460938 17.519531 10.695312 17.515625 C 10.664062 17.554688 10.640625 17.601562 10.605469 17.640625 C 10.570312 17.675781 10.527344 17.699219 10.488281 17.726562 C 10.394531 17.699219 10.300781 17.664062 10.207031 17.636719 C 10.011719 17.460938 10.097656 17.582031 10.054688 17.351562 C 10 17.328125 9.933594 17.324219 9.875 17.324219 C 9.855469 17.324219 9.613281 17.425781 9.410156 17.691406 C 9.386719 17.683594 9.367188 17.671875 9.347656 17.660156 C 9.394531 17.515625 9.539062 17.320312 9.582031 17.289062 C 9.800781 17.144531 9.839844 17.085938 10.25 17.097656 C 10.332031 17.101562 10.414062 17.078125 10.496094 17.074219 C 10.535156 17.105469 10.578125 17.132812 10.617188 17.160156 C 10.742188 17.167969 11.222656 17.164062 11.300781 17.132812 C 11.589844 16.964844 11.519531 17.210938 11.691406 16.476562 C 11.695312 16.460938 11.808594 15.714844 11.804688 15.585938 C 11.804688 15.609375 11.808594 15.636719 11.8125 15.664062 C 11.820312 15.457031 11.878906 15.253906 11.863281 15.042969 C 11.867188 15.070312 11.871094 15.097656 11.875 15.125 C 11.875 15.007812 11.898438 14.894531 11.890625 14.78125 C 11.894531 14.816406 11.898438 14.851562 11.902344 14.882812 C 11.894531 14.597656 12.015625 13.761719 12.015625 13.097656 C 12.011719 12.972656 12.050781 12.847656 12.054688 12.722656 C 11.976562 12.75 11.820312 12.828125 11.710938 12.871094 C 11.652344 12.882812 11.59375 12.875 11.535156 12.875 C 11.429688 12.871094 11.332031 12.910156 11.234375 12.925781 C 11.003906 12.929688 11.085938 12.898438 10.5 12.933594 C 10.09375 12.960938 10.144531 13.027344 9.625 12.992188 C 9.429688 12.984375 8.347656 13.113281 8.277344 13.101562 C 8.078125 13.117188 8.03125 13.105469 7.382812 13.242188 C 2.902344 15.421875 4.976562 14.558594 2.445312 15.753906 C 2.417969 15.769531 2.386719 15.777344 2.371094 15.808594 C 2.304688 15.800781 2.238281 15.773438 2.171875 15.777344 C 2.109375 15.777344 2.050781 15.78125 1.992188 15.78125 C 1.933594 15.835938 1.882812 15.894531 1.828125 15.957031 C 1.78125 15.953125 1.730469 15.960938 1.679688 15.953125 C 1.640625 15.933594 1.605469 15.902344 1.570312 15.875 C 1.503906 15.824219 1.507812 15.835938 1.503906 15.730469 C 1.433594 15.738281 1.410156 15.753906 1.363281 15.746094 C 1.320312 15.714844 1.28125 15.679688 1.261719 15.628906 C 1.234375 15.625 1.207031 15.621094 1.183594 15.617188 C 1.132812 15.582031 1.085938 15.546875 1.035156 15.511719 C 1.015625 15.472656 0.988281 15.4375 0.96875 15.398438 C 0.96875 15.375 0.992188 15.359375 1.003906 15.339844 C 1.003906 15.316406 1.003906 15.296875 1.003906 15.277344 C 0.972656 15.269531 0.941406 15.265625 0.910156 15.265625 C 0.851562 15.21875 0.792969 15.179688 0.730469 15.136719 C 0.664062 15.097656 0.640625 15.023438 0.589844 14.96875 C 0.59375 14.691406 0.5625 14.863281 0.679688 14.570312 C 0.722656 14.464844 0.636719 14.546875 1.332031 14.0625 C 1.40625 14.003906 2.90625 13.296875 3.011719 13.25 C 3.058594 13.230469 4.265625 12.714844 4.316406 12.695312 C 4.449219 12.617188 4.621094 12.449219 4.855469 12.355469 C 4.730469 12.304688 4.425781 12.3125 4.222656 12.136719 C 4.21875 11.945312 4.203125 11.988281 4.316406 11.726562 C 4.414062 11.679688 4.523438 11.65625 4.628906 11.625 C 5.890625 11.269531 6.558594 11.105469 7.933594 10.515625 C 8.03125 10.441406 7.980469 10.394531 8.171875 10.261719 C 8.171875 10.257812 8.167969 10.25 8.167969 10.242188 C 8.152344 10.222656 8.136719 10.199219 8.121094 10.175781 C 8.121094 10.132812 8.121094 10.089844 8.125 10.050781 C 8.65625 9.585938 8.023438 10.046875 9.753906 9.019531 C 9.789062 8.992188 9.832031 8.984375 9.875 8.980469 C 9.867188 8.980469 9.859375 8.980469 9.851562 8.976562 C 10.113281 8.914062 12.085938 7.675781 12.316406 7.597656 C 12.3125 7.597656 12.308594 7.597656 12.300781 7.597656 C 14.609375 6.355469 14.683594 5.804688 17.613281 4.699219 C 17.625 4.695312 18.242188 4.460938 18.332031 4.421875 C 18.332031 4.421875 18.332031 4.417969 18.332031 4.417969 C 18.3125 4.417969 18.292969 4.410156 18.28125 4.394531 C 18.324219 4.386719 18.371094 4.378906 18.414062 4.371094 C 18.414062 4.367188 18.417969 4.359375 18.421875 4.355469 C 18.40625 4.347656 18.394531 4.34375 18.378906 4.335938 C 18.378906 4.328125 18.378906 4.316406 18.378906 4.308594 C 18.410156 4.273438 18.449219 4.242188 18.476562 4.203125 C 18.476562 4.1875 18.46875 4.175781 18.46875 4.160156 C 18.523438 4.097656 18.585938 4.046875 18.644531 3.984375 C 18.660156 3.964844 18.621094 3.953125 18.613281 3.941406 C 18.671875 3.878906 18.734375 3.820312 18.796875 3.757812 C 18.792969 3.738281 18.789062 3.722656 18.785156 3.703125 C 19.011719 3.339844 19.019531 3.375 19.023438 3.328125 C 18.980469 3.351562 18.9375 3.375 18.898438 3.398438 C 18.957031 3.328125 19.023438 3.265625 19.09375 3.207031 C 19.09375 3.199219 19.097656 3.183594 19.097656 3.175781 C 19.089844 3.167969 19.085938 3.160156 19.078125 3.152344 C 19.160156 3.101562 19.25 3.066406 19.332031 3.019531 C 19.335938 2.996094 19.34375 2.976562 19.351562 2.953125 C 19.308594 2.964844 19.269531 2.980469 19.226562 2.984375 C 19.257812 2.941406 19.292969 2.902344 19.324219 2.855469 C 19.296875 2.855469 19.273438 2.855469 19.25 2.855469 C 19.246094 2.863281 19.234375 2.871094 19.230469 2.875 C 19.253906 2.832031 19.292969 2.796875 19.324219 2.757812 C 19.308594 2.753906 19.292969 2.746094 19.277344 2.742188 C 19.296875 2.683594 19.328125 2.628906 19.335938 2.566406 C 19.3125 2.5625 19.285156 2.558594 19.257812 2.554688 C 19.300781 2.511719 19.347656 2.46875 19.386719 2.421875 C 19.347656 2.417969 19.3125 2.417969 19.273438 2.414062 C 19.285156 2.386719 19.46875 2.238281 19.480469 2.226562 C 19.480469 2.222656 19.480469 2.210938 19.484375 2.203125 C 19.453125 2.203125 19.425781 2.203125 19.398438 2.203125 C 19.414062 2.125 19.5 2.105469 19.542969 2.042969 C 19.664062 1.867188 19.785156 1.691406 19.90625 1.515625 C 20.324219 0.960938 20.195312 1.140625 20.398438 0.96875 C 20.605469 0.816406 20.496094 0.839844 21.035156 0.574219 C 21.402344 0.449219 21.609375 0.464844 21.679688 0.449219 M 12.464844 18.175781 C 12.464844 18.1875 12.464844 18.203125 12.46875 18.214844 C 12.507812 18.261719 12.546875 18.3125 12.609375 18.335938 C 12.617188 18.371094 12.65625 18.351562 12.679688 18.351562 C 12.605469 18.324219 12.539062 18.277344 12.488281 18.214844 C 12.488281 18.203125 12.488281 18.183594 12.488281 18.175781 C 12.484375 18.175781 12.472656 18.175781 12.464844 18.175781 M 12.660156 18.359375 C 12.679688 18.375 12.707031 18.378906 12.734375 18.382812 C 12.792969 18.414062 12.859375 18.433594 12.925781 18.445312 L 12.925781 18.457031 C 12.941406 18.457031 12.957031 18.453125 12.972656 18.453125 C 12.875 18.40625 12.769531 18.34375 12.660156 18.359375 Z M 12.660156 18.359375 "/>
</g>
</svg>
