<?xml version="1.0" encoding="UTF-8"?>
<svg xmlns="http://www.w3.org/2000/svg" xmlns:xlink="http://www.w3.org/1999/xlink" width="20px" height="20px" viewBox="0 0 20 20" version="1.1">
<g id="surface1">
<path style=" stroke:none;fill-rule:nonzero;fill:rgb(0%,0%,0%);fill-opacity:1;" d="M 3.527344 11.398438 C 2.921875 11.429688 2.230469 11.324219 1.675781 11.078125 C 0.472656 10.546875 0.667969 9.132812 1.078125 8.113281 C 1.316406 7.527344 1.691406 6.980469 2.117188 6.515625 C 2.320312 6.292969 2.542969 6.03125 2.804688 5.875 C 3.109375 5.691406 3.484375 5.71875 3.816406 5.605469 C 4.097656 5.511719 4.382812 5.398438 4.625 5.21875 C 5.074219 4.882812 5.203125 4.386719 5.253906 3.851562 C 5.332031 3.050781 5.320312 1.207031 6.613281 1.460938 C 7.070312 1.550781 7.285156 1.8125 7.320312 2.273438 C 7.367188 2.863281 6.933594 3.488281 6.609375 3.9375 C 6.277344 4.398438 6.472656 4.566406 6.683594 4.023438 C 6.878906 3.519531 7.296875 2.800781 7.765625 2.464844 C 8.082031 2.238281 8.480469 2.328125 8.6875 2.660156 C 8.96875 3.109375 8.734375 3.675781 8.503906 4.089844 C 8.199219 4.640625 6.410156 6.578125 7.445312 7.128906 C 8.304688 7.589844 9.550781 6.710938 10.464844 6.722656 C 11.25 6.734375 12.039062 6.988281 12.777344 7.242188 C 13.785156 7.585938 14.796875 8.015625 15.664062 8.644531 C 17.03125 9.636719 17.394531 10.960938 17.453125 12.570312 C 17.464844 12.832031 17.472656 13.09375 17.480469 13.355469 C 17.851562 13.269531 18.453125 12.835938 18.820312 13.054688 C 19.40625 13.402344 18.621094 14.515625 18.3125 14.792969 C 17.925781 15.144531 17.519531 15.179688 17.03125 15.234375 C 16.433594 15.296875 15.972656 15.703125 15.625 16.171875 C 15.363281 16.53125 15.273438 16.660156 14.855469 16.820312 C 14.417969 16.988281 14.027344 17.144531 13.554688 17.175781 C 12.886719 17.21875 12.226562 17.363281 11.566406 17.472656 C 11.140625 17.546875 10.578125 17.589844 10.273438 17.210938 C 10.019531 16.886719 10.167969 16.527344 10.476562 16.316406 C 10.757812 16.121094 11.148438 15.910156 11.496094 15.890625 C 11.066406 15.710938 10.550781 15.71875 10.101562 15.609375 C 9.734375 15.519531 8.902344 15.015625 8.691406 15.433594 C 8.488281 15.824219 8.410156 16.28125 8.046875 16.582031 C 7.703125 16.863281 7.128906 16.632812 6.871094 16.335938 C 6.675781 17.03125 5.484375 17.394531 4.84375 17.207031 C 3.820312 16.90625 5.191406 16.0625 5.460938 15.761719 C 5.863281 15.324219 5.792969 14.875 5.347656 14.5 C 4.914062 14.132812 4.539062 13.789062 4.183594 13.332031 C 3.808594 12.84375 3.242188 12.039062 3.527344 11.398438 Z M 3.527344 11.398438 "/>
</g>
</svg>
