<?xml version="1.0" encoding="UTF-8"?>
<svg xmlns="http://www.w3.org/2000/svg" xmlns:xlink="http://www.w3.org/1999/xlink" width="21px" height="20px" viewBox="0 0 20 20" version="1.1">
<g id="surface1">
<path style=" stroke:none;fill-rule:evenodd;fill:rgb(0%,0%,0%);fill-opacity:1;" d="M 7.566406 16.167969 L 13.21875 16.167969 C 13.21875 15.320312 13.160156 15.15625 11.828125 15.15625 C 12.042969 14.484375 12.90625 12.863281 13.386719 12.863281 C 13.808594 12.863281 14.316406 12.882812 14.316406 13.90625 C 14.316406 15.0625 16.167969 16.929688 16.617188 16.167969 C 17.285156 15.035156 15.46875 15.382812 15.46875 12.640625 C 15.46875 8.898438 17.542969 9.429688 17.542969 7.324219 C 17.542969 6.273438 17.269531 6.132812 17.269531 5.378906 C 17.269531 4.382812 18.101562 4.445312 17.9375 3.617188 C 17.824219 3.046875 17.738281 2.589844 17.675781 1.902344 C 17.625 1.414062 17.609375 0.894531 17.128906 0.914062 C 16.5625 0.9375 16.347656 1.988281 15.46875 2.0625 C 14.589844 2.136719 13.839844 1.273438 13.496094 1.398438 C 13.160156 1.523438 13.265625 2.484375 13.46875 3.167969 C 13.78125 4.242188 14.46875 5.640625 13.21875 5.851562 C 11.96875 6.0625 9.816406 6.273438 8.265625 8.429688 C 6.71875 10.589844 6.777344 13.121094 6.167969 13.90625 C 4.128906 16.535156 2.039062 15.457031 2.039062 17.640625 C 2.039062 18.621094 3.617188 19.324219 3.867188 19.007812 C 4.117188 18.695312 1.742188 17.753906 4.398438 16.640625 C 6.671875 15.695312 6.871094 15.5 7.566406 16.167969 Z M 7.566406 16.167969 "/>
</g>
</svg>
