<?xml version="1.0" encoding="UTF-8"?>
<svg xmlns="http://www.w3.org/2000/svg" xmlns:xlink="http://www.w3.org/1999/xlink" width="20px" height="20px" viewBox="0 0 20 20" version="1.1">
<g id="surface1">
<path style=" stroke:none;fill-rule:nonzero;fill:rgb(0.392157%,0.392157%,0.392157%);fill-opacity:1;" d="M 13.734375 1.628906 C 13.21875 1.628906 12.800781 1.601562 12.667969 2.667969 L 12.132812 6.027344 L 15.332031 8.667969 L 18 8.667969 C 19.867188 8.667969 20 7.386719 20 7.386719 L 17.464844 4.429688 C 16.53125 3.496094 15.601562 3.332031 14.667969 3.332031 L 14.667969 2.667969 C 14.667969 2.667969 14.757812 1.628906 13.734375 1.628906 Z M 6.332031 2 C 6.332031 2 5.066406 2.027344 4.265625 2.292969 C 3.464844 2.5625 2.667969 3.496094 2.667969 4.828125 L 2.667969 10.027344 C 2.667969 12.296875 1.734375 12.667969 1.332031 12.667969 C 1.332031 12.667969 0 12.695312 0 14.027344 L 0 16.960938 C 0 16.960938 0 18.027344 1.066406 18.027344 L 2.667969 18.027344 L 2.667969 17.097656 C 2.667969 16.5625 2.398438 16.292969 2 16.160156 L 2 14.695312 C 3.332031 14.695312 3.464844 14.425781 4 14.292969 L 4.734375 17.222656 C 4.867188 17.625 5 17.890625 5.402344 18.023438 L 6.734375 18.023438 L 8 18 L 8 16.933594 C 8 16.03125 6.667969 16 6.667969 16 L 6.667969 12.667969 L 11.332031 12.667969 L 12.265625 16.160156 C 12.800781 18.027344 14 18 14 18 L 16 18 L 16 16.933594 C 16 15.984375 14.667969 16 14.667969 16 L 14.800781 10.5625 L 10.667969 7.332031 L 4.667969 7.332031 L 4.667969 4.667969 C 4.667969 4.132812 5.035156 4.007812 5.332031 4 C 5.992188 3.984375 6.332031 4 6.332031 4 C 6.886719 4 7.332031 3.550781 7.332031 3 C 7.332031 2.449219 6.886719 2 6.332031 2 Z M 15.667969 5.332031 C 15.851562 5.332031 16 5.484375 16 5.667969 C 16 5.851562 15.851562 6 15.667969 6 C 15.484375 6 15.332031 5.851562 15.332031 5.667969 C 15.332031 5.484375 15.484375 5.332031 15.667969 5.332031 Z M 15.667969 5.332031 "/>
</g>
</svg>
