<?xml version="1.0" encoding="UTF-8"?>
<svg xmlns="http://www.w3.org/2000/svg" xmlns:xlink="http://www.w3.org/1999/xlink" width="20px" height="20px" viewBox="0 0 20 20" version="1.1">
<g id="surface1">
<path style=" stroke:none;fill-rule:nonzero;fill:rgb(0%,0%,0%);fill-opacity:1;" d="M 14.828125 5.785156 C 14.828125 5.785156 12.882812 1.972656 12.03125 5.957031 C 10.824219 6.574219 8.886719 5.628906 6.570312 5.792969 C 5.773438 5.851562 0 5.722656 0 10.839844 C 0 14.113281 2.183594 15.792969 3.582031 15.851562 C 3.90625 15.867188 5.160156 15.851562 5.242188 15.847656 C 5.671875 15.828125 6.136719 15.808594 6.140625 15.582031 C 6.152344 15.109375 4.320312 14.914062 4.175781 14.8125 C 4.03125 14.707031 4.03125 14.082031 4.871094 14.304688 C 6.324219 14.714844 8.816406 14.449219 9.390625 14.285156 C 9.964844 14.121094 10.339844 14.96875 10.667969 15.417969 C 10.996094 15.871094 11.507812 15.847656 11.507812 15.847656 C 11.507812 15.847656 13.246094 15.847656 13.675781 15.847656 C 14.105469 15.847656 13.964844 15.367188 13.023438 15.164062 C 12.078125 14.957031 12.601562 14.480469 13.023438 14.066406 C 13.40625 13.6875 14.382812 12.671875 15.109375 12.550781 C 19.921875 11.734375 19.855469 8.765625 19.792969 8.3125 C 21.09375 7.089844 15.851562 5.847656 14.828125 5.785156 Z M 14.828125 5.785156 "/>
</g>
</svg>
